<?xml version="1.0" encoding="UTF-8"?>
<svg xmlns="http://www.w3.org/2000/svg" height="232" width="232" class="pyqrcode"><path transform="scale(8)" stroke="#000" class="pyqrline" d="M4 4.5h7m2 0h4m1 0h7m-21 1h1m5 0h1m3 0h1m3 0h1m5 0h1m-21 1h1m1 0h3m1 0h1m5 0h1m1 0h1m1 0h3m1 0h1m-21 1h1m1 0h3m1 0h1m3 0h1m1 0h1m1 0h1m1 0h3m1 0h1m-21 1h1m1 0h3m1 0h1m1 0h1m1 0h3m1 0h1m1 0h3m1 0h1m-21 1h1m5 0h1m2 0h1m2 0h1m1 0h1m5 0h1m-21 1h7m1 0h1m1 0h1m1 0h1m1 0h7m-13 1h1m2 0h2m-11 1h2m2 0h5m2 0h2m1 0h1m-16 1h3m1 0h1m1 0h1m1 0h2m3 0h1m2 0h1m-17 1h1m1 0h5m2 0h1m3 0h1m2 0h2m1 0h1m-20 1h1m2 0h2m2 0h2m1 0h1m1 0h1m1 0h5m-20 1h1m1 0h5m2 0h1m1 0h1m3 0h1m2 0h3m-13 1h6m3 0h1m2 0h1m-21 1h7m1 0h1m1 0h1m1 0h4m1 0h1m-18 1h1m5 0h1m2 0h1m2 0h5m1 0h1m-19 1h1m1 0h3m1 0h1m3 0h2m1 0h1m1 0h2m3 0h1m-21 1h1m1 0h3m1 0h1m1 0h1m1 0h3m2 0h5m-20 1h1m1 0h3m1 0h1m1 0h2m4 0h2m-16 1h1m5 0h1m3 0h2m3 0h1m2 0h3m-21 1h7m3 0h1m1 0h1m3 0h1m2 0h1"/></svg>
